<?xml version="1.0" standalone="no"?>
<!DOCTYPE svg PUBLIC "-//W3C//DTD SVG 20010904//EN"
 "http://www.w3.org/TR/2001/REC-SVG-20010904/DTD/svg10.dtd">
<svg version="1.0" xmlns="http://www.w3.org/2000/svg"
 width="148.000000pt" height="40.000000pt" viewBox="0 0 148.000000 40.000000"
 preserveAspectRatio="xMidYMid meet">

<g transform="translate(0.000000,40.000000) scale(0.100000,-0.100000)"
fill="#000000" stroke="none">
<path d="M456 281 c-24 -25 -28 -38 -28 -81 0 -36 6 -60 19 -79 22 -29 77 -47
117 -37 31 8 66 40 66 60 0 23 -37 26 -56 4 -27 -29 -66 -20 -76 17 -9 38 3
85 26 99 14 9 21 6 36 -12 12 -15 28 -22 41 -20 32 4 34 24 5 53 -20 20 -35
25 -74 25 -40 0 -53 -5 -76 -29z"/>
<path d="M662 198 l3 -113 28 -3 27 -3 1 73 1 73 25 -73 c21 -63 28 -73 46
-70 17 2 26 17 42 70 11 37 23 70 28 74 4 4 7 -27 7 -69 l0 -77 30 0 30 0 0
115 0 115 -49 0 -49 0 -12 -50 c-7 -27 -15 -50 -19 -50 -4 0 -14 21 -22 48
l-15 47 -52 3 -53 3 3 -113z"/>
</g>
</svg>
